<?xml version="1.0" standalone="no"?>
<!DOCTYPE svg PUBLIC "-//W3C//DTD SVG 20010904//EN"
 "http://www.w3.org/TR/2001/REC-SVG-20010904/DTD/svg10.dtd">
<svg version="1.0" xmlns="http://www.w3.org/2000/svg"
 width="1024.000000pt" height="1024.000000pt" viewBox="0 0 1024.000000 1024.000000"
 preserveAspectRatio="xMidYMid meet">
<metadata>
Created by potrace 1.11, written by Peter Selinger 2001-2013
</metadata>
<g transform="translate(0.000000,1024.000000) scale(0.100000,-0.100000)"
fill="#000000" stroke="none">
<path d="M4927 9689 c-81 -9 -125 -32 -152 -82 l-20 -36 -327 -3 c-313 -3
-328 -4 -355 -24 -43 -32 -73 -82 -73 -123 l0 -36 -87 -24 c-789 -216 -1558
-684 -2097 -1279 -668 -738 -1045 -1569 -1162 -2567 -14 -114 -18 -227 -18
-470 0 -341 10 -471 59 -763 227 -1340 1074 -2521 2281 -3179 106 -58 367
-183 410 -197 20 -6 21 -2 28 136 7 150 32 474 41 544 l6 40 -111 48 c-82 36
-109 52 -100 60 6 6 218 153 473 326 l462 315 11 52 11 51 -61 6 c-96 11 -281
54 -406 96 -394 132 -749 358 -1080 690 -272 271 -534 634 -691 955 -136 278
-157 693 -52 1055 40 140 242 570 385 820 65 113 246 386 356 537 l67 93 316
0 317 0 183 -130 183 -130 1331 0 1332 0 164 -131 c90 -72 168 -135 173 -139
5 -5 -150 -9 -349 -10 -197 0 -370 -3 -384 -7 -48 -11 -16 6 97 51 184 74 204
78 280 61 36 -9 124 -34 194 -56 71 -23 131 -39 134 -36 16 16 -279 169 -358
186 -58 13 -126 2 -262 -45 -101 -36 -383 -166 -434 -202 -15 -11 -88 -40
-163 -66 l-136 -46 -196 0 -197 0 -127 44 c-71 24 -144 47 -163 51 -19 4 -67
27 -106 50 -160 97 -387 198 -517 231 -88 22 -139 11 -274 -56 -101 -49 -216
-119 -198 -120 6 0 73 18 150 40 228 65 245 67 345 30 47 -17 125 -50 174 -73
l88 -42 -478 0 -479 0 -21 -155 c-29 -211 -54 -461 -54 -540 0 -98 32 -159
109 -209 126 -81 356 -129 661 -138 275 -8 513 18 632 69 53 23 120 90 162
160 15 26 46 102 69 170 l42 123 49 25 c90 44 267 26 312 -31 6 -8 26 -59 44
-114 42 -130 83 -206 145 -270 40 -42 63 -57 115 -74 139 -44 239 -55 515 -56
283 0 407 13 571 60 224 65 285 135 302 343 8 93 0 300 -13 371 l-7 35 76 -68
c42 -37 76 -64 76 -59 0 5 -14 92 -30 193 -21 125 -36 190 -48 203 -18 20
-279 216 -349 262 -24 15 -43 30 -43 34 0 3 65 52 145 109 l144 102 299 0 299
0 61 -123 c35 -73 127 -222 224 -368 218 -326 304 -499 387 -776 73 -247 121
-859 92 -1182 -46 -520 -166 -728 -581 -1014 -300 -206 -855 -512 -1260 -695
-150 -68 -209 -92 -368 -153 -24 -9 -22 -19 10 -62 12 -16 15 -16 50 8 20 14
42 25 47 25 8 0 809 -627 841 -657 3 -3 -8 -15 -24 -27 -16 -11 -326 -245
-690 -519 -608 -458 -751 -574 -717 -585 16 -5 225 27 376 59 385 81 708 193
1065 370 325 161 666 382 870 565 19 17 76 67 125 111 1393 1239 1868 3235
1185 4978 -204 519 -510 1002 -903 1424 -518 556 -1197 982 -1930 1210 l-122
38 -5 56 c-5 59 -26 96 -74 131 -26 20 -43 21 -315 24 l-288 3 -7 -47 c-13
-100 1 -882 24 -1244 34 -556 94 -923 184 -1132 28 -64 6 -42 -24 25 -135 299
-225 1047 -249 2077 -6 278 -10 330 -24 357 -20 37 -49 59 -98 74 -42 12 -408
18 -502 8z m1429 -504 l43 -25 -5 -78 c-3 -42 -23 -434 -44 -871 -22 -436 -42
-796 -45 -799 -3 -3 -5 400 -5 896 0 496 3 902 7 902 3 0 26 -11 49 -25z m670
-2270 c6 -23 -10 -41 -142 -168 -229 -219 -274 -261 -278 -256 -2 2 80 104
183 226 194 232 223 255 237 198z m-2618 -841 c155 -26 245 -63 326 -135 72
-63 86 -101 86 -236 0 -207 -49 -344 -140 -389 -100 -50 -286 -83 -515 -91
-387 -13 -648 66 -713 217 -10 24 -18 97 -25 230 l-10 196 26 49 c48 95 108
127 278 151 258 36 509 39 687 8z m1932 16 c167 -12 345 -38 386 -55 65 -27
124 -95 144 -167 10 -33 -7 -346 -22 -405 -38 -152 -277 -242 -646 -243 -161
0 -292 13 -433 45 -169 37 -217 71 -258 179 -39 106 -54 304 -30 387 32 105
171 197 358 234 157 32 305 39 501 25z"/>
<path d="M4010 5915 c-35 -8 -91 -24 -124 -35 -74 -25 -162 -27 -188 -3 -25
22 -30 13 -17 -28 29 -84 113 -166 229 -224 l55 -27 -31 33 c-54 58 -58 73
-28 109 15 17 43 39 63 50 l37 18 0 -62 c0 -81 37 -150 92 -173 50 -21 195
-12 231 15 40 30 66 90 66 153 l0 57 70 -25 c78 -28 137 -56 177 -84 36 -26
41 -24 24 10 -36 69 -175 162 -301 201 -91 29 -263 36 -355 15z m362 -122 c22
-20 23 -37 2 -57 -32 -32 -114 -11 -114 29 0 41 76 60 112 28z"/>
<path d="M5965 5904 c-103 -21 -238 -91 -307 -159 -80 -79 -75 -94 15 -45 39
21 102 50 139 64 l67 25 0 -53 c0 -61 17 -109 53 -148 21 -21 38 -27 92 -33
100 -11 152 -2 187 31 40 39 63 102 57 163 l-5 50 47 -24 c52 -26 84 -66 75
-94 -3 -10 -22 -34 -42 -55 -20 -20 -33 -36 -29 -36 21 0 134 69 178 109 51
45 108 132 108 164 0 17 -2 17 -22 3 -33 -23 -115 -20 -205 8 -155 49 -275 57
-408 30z m265 -114 c25 -25 25 -35 -1 -61 -16 -16 -28 -20 -52 -15 -59 12 -76
51 -35 80 31 22 64 20 88 -4z"/>
<path d="M4781 4752 c-1 -59 1 -66 32 -97 51 -51 114 -65 291 -65 188 1 251
20 299 90 17 24 24 110 11 123 -4 4 -19 -13 -34 -37 -47 -74 -86 -86 -281 -86
-207 0 -241 13 -306 116 -10 16 -12 9 -12 -44z"/>
<path d="M6833 4321 c-122 -248 -291 -478 -509 -693 -207 -203 -353 -321 -563
-455 -220 -141 -534 -301 -622 -317 -65 -12 -139 12 -324 103 -310 154 -547
312 -808 540 -256 225 -457 474 -618 769 -49 90 -68 117 -63 92 109 -628 310
-1123 633 -1560 86 -116 239 -283 252 -274 5 3 9 139 9 310 0 168 3 304 8 302
4 -1 54 -34 112 -72 162 -106 360 -220 530 -304 149 -75 156 -77 225 -76 62 0
83 6 190 53 178 79 471 229 635 325 l145 85 5 -305 5 -305 77 123 c247 397
455 839 608 1298 58 171 145 479 139 484 -2 2 -32 -54 -66 -123z"/>
<path d="M4730 4203 c-127 -10 -185 -11 -211 -4 -92 27 -107 4 -50 -75 23 -32
41 -63 41 -69 0 -23 44 -120 82 -182 46 -73 134 -157 205 -196 115 -62 310
-85 436 -52 174 45 330 180 429 369 23 45 54 101 70 125 48 77 32 119 -33 85
-35 -18 -79 -17 -339 6 -148 13 -424 10 -630 -7z m820 -105 c-12 -34 -34 -67
-61 -90 -23 -21 -35 -38 -27 -38 8 0 25 -11 38 -25 l23 -25 -74 -34 c-114 -53
-180 -67 -329 -73 -101 -4 -154 -1 -209 11 -75 16 -222 78 -242 103 -17 19 -2
62 26 75 l24 11 -43 27 c-37 24 -77 82 -64 95 2 2 28 -2 58 -10 174 -46 653
-41 835 10 28 7 53 14 57 14 5 1 -1 -23 -12 -51z"/>
</g>
</svg>
